M48
; DRILL file {KiCad (5.1.5)-3} date 05/08/2020 14:09:43
; FORMAT={-:-/ absolute / inch / decimal}
; #@! TF.CreationDate,2020-08-05T14:09:43-04:00
; #@! TF.GenerationSoftware,Kicad,Pcbnew,(5.1.5)-3
; #@! TF.FileFunction,Plated,1,2,PTH
FMAT,2
INCH
T1C0.0157
T2C0.0394
T3C0.0551
%
G90
G05
T1
X3.5645Y-3.4776
X3.8795Y-3.3627
X3.8802Y-3.4693
X4.4441Y-3.2638
X4.4971Y-3.6641
X4.4972Y-3.4978
X4.5549Y-3.2445
X4.5552Y-3.3652
X4.9105Y-3.2439
X5.0273Y-3.274
X5.0349Y-3.6627
X5.1128Y-3.4536
X5.1129Y-3.6256
X5.1136Y-3.3135
X5.1531Y-3.2814
X5.2143Y-3.4849
X5.2143Y-3.6553
X5.6024Y-3.6548
X5.6032Y-3.2836
X5.7214Y-3.6263
X5.7221Y-3.3128
X5.8089Y-3.4537
X5.8101Y-3.6253
X5.8102Y-3.3134
X5.8492Y-3.2815
X5.9115Y-3.4846
X5.9115Y-3.655
X6.2993Y-3.2837
X6.2996Y-3.6545
X6.4186Y-3.626
X6.4187Y-3.3127
X6.5055Y-3.4535
X6.5062Y-3.625
X6.5069Y-3.3135
X6.5458Y-3.2813
X6.6076Y-3.4843
X6.6076Y-3.6547
X6.9957Y-3.6542
X6.9959Y-3.2835
X7.1147Y-3.6257
X7.1154Y-3.3128
X7.1918Y-3.3134
X7.1925Y-3.4533
X7.1938Y-3.6249
X7.2328Y-3.2811
X7.2952Y-3.4842
X7.2952Y-3.6546
X7.6829Y-3.2833
X7.6833Y-3.6541
X7.8003Y-3.3127
X7.8023Y-3.6256
X7.8893Y-3.4533
X7.8902Y-3.3125
X7.8903Y-3.6239
X7.9296Y-3.2811
X7.9917Y-3.4832
X7.9917Y-3.6536
X8.3797Y-3.2833
X8.3798Y-3.6531
X8.4987Y-3.3118
X8.4988Y-3.6246
T2
X6.0638Y-3.4096
X6.0638Y-3.5277
X6.1819Y-3.4096
X6.1819Y-3.5277
X6.3001Y-3.4096
X6.3001Y-3.5277
X6.4182Y-3.4096
X6.4182Y-3.5277
X5.3674Y-3.4096
X5.3674Y-3.5277
X5.4855Y-3.4096
X5.4855Y-3.5277
X5.6036Y-3.4096
X5.6036Y-3.5277
X5.7217Y-3.4096
X5.7217Y-3.5277
X6.7603Y-3.4096
X6.7603Y-3.5277
X6.8784Y-3.4096
X6.8784Y-3.5277
X6.9965Y-3.4096
X6.9965Y-3.5277
X7.1146Y-3.4096
X7.1146Y-3.5277
X7.4474Y-3.4095
X7.4474Y-3.5276
X7.5655Y-3.4095
X7.5655Y-3.5276
X7.6836Y-3.4095
X7.6836Y-3.5276
X7.8017Y-3.4095
X7.8017Y-3.5276
X8.1438Y-3.4095
X8.1438Y-3.5276
X8.2619Y-3.4095
X8.2619Y-3.5276
X8.3801Y-3.4095
X8.3801Y-3.5276
X8.4982Y-3.4095
X8.4982Y-3.5276
X4.6766Y-3.4096
X4.6766Y-3.5277
X4.7947Y-3.4096
X4.7947Y-3.5277
X4.9128Y-3.4096
X4.9128Y-3.5277
X5.0309Y-3.4096
X5.0309Y-3.5277
T3
X3.5644Y-3.3645
X3.5644Y-3.581
X3.7297Y-3.3645
X3.7297Y-3.581
X4.023Y-3.3645
X4.023Y-3.581
X4.1884Y-3.3645
X4.1884Y-3.581
X4.3537Y-3.3645
X4.3537Y-3.581
T0
M30
