M48
; DRILL file {KiCad (5.1.5)-3} date 12/09/2020 15:14:41
; FORMAT={-:-/ absolute / inch / decimal}
; #@! TF.CreationDate,2020-09-12T15:14:41-04:00
; #@! TF.GenerationSoftware,Kicad,Pcbnew,(5.1.5)-3
; #@! TF.FileFunction,Plated,1,4,PTH
FMAT,2
INCH
T1C0.0157
T2C0.0276
T3C0.0300
T4C0.0315
T5C0.0394
T6C0.0402
T7C0.0472
T8C0.0512
T9C0.0551
T10C0.0701
%
G90
G05
T1
X3.3786Y-2.3347
X3.3786Y-5.9664
X3.3804Y-8.3206
X3.4071Y-2.2117
X3.4071Y-8.1765
X3.4642Y-2.7044
X3.4642Y-4.6387
X3.4642Y-4.738
X3.4642Y-6.0242
X3.4642Y-6.3635
X3.4642Y-8.148
X3.4928Y-2.8759
X3.4928Y-5.6648
X3.4928Y-7.7045
X3.4928Y-8.1153
X3.521Y-2.5608
X3.5334Y-2.2119
X3.5407Y-8.1998
X3.5417Y-8.4436
X3.5795Y-5.967
X3.5808Y-6.363
X3.5921Y-8.113
X3.6012Y-6.0624
X3.6958Y-8.9395
X3.7436Y-8.4756
X3.7442Y-8.148
X3.7506Y-3.7635
X3.801Y-6.4291
X3.8299Y-6.4576
X3.8577Y-3.7618
X3.8577Y-4.3854
X3.8577Y-4.6134
X3.8584Y-6.4862
X3.8752Y-5.757
X3.8861Y-4.9033
X3.8863Y-3.1064
X3.9107Y-8.1681
X3.9147Y-4.9388
X3.9147Y-5.1315
X3.9148Y-7.1008
X3.9154Y-2.9779
X3.9193Y-7.6798
X3.9427Y-7.232
X3.9584Y-3.0069
X3.987Y-5.1956
X3.9886Y-3.035
X4.0118Y-8.2228
X4.0155Y-4.4881
X4.0163Y-7.1685
X4.0177Y-3.8688
X4.0583Y-8.3176
X4.0814Y-2.3348
X4.0814Y-2.6308
X4.1362Y-8.2165
X4.1509Y-7.0902
X4.1668Y-4.4884
X4.1904Y-3.064
X4.1922Y-3.7138
X4.1945Y-3.256
X4.21Y-4.6949
X4.2414Y-6.8301
X4.2423Y-6.991
X4.2668Y-3.9836
X4.2914Y-4.3297
X4.2917Y-4.493
X4.2933Y-4.614
X4.2938Y-5.3317
X4.3085Y-8.8938
X4.3284Y-8.2479
X4.3298Y-4.6288
X4.3298Y-5.3022
X4.3556Y-3.8294
X4.3583Y-4.3836
X4.3696Y-7.0349
X4.381Y-6.6975
X4.387Y-4.011
X4.3962Y-5.9204
X4.4026Y-5.1986
X4.4183Y-6.5604
X4.4184Y-4.5343
X4.4246Y-5.9863
X4.4354Y-4.197
X4.4359Y-2.6759
X4.4384Y-4.8795
X4.4418Y-6.8833
X4.4803Y-7.3841
X4.489Y-4.385
X4.5272Y-6.0153
X4.5323Y-7.2365
X4.5332Y-6.7218
X4.5335Y-6.8797
X4.5704Y-5.3602
X4.5803Y-4.2297
X4.5806Y-4.3929
X4.5816Y-4.7455
X4.6242Y-7.2365
X4.6248Y-2.1917
X4.653Y-7.1389
X4.6586Y-6.9379
X4.6731Y-4.7457
X4.6739Y-6.588
X4.6861Y-2.2007
X4.7004Y-6.5227
X4.7028Y-4.4396
X4.7072Y-4.6409
X4.7169Y-4.0946
X4.7322Y-6.7889
X4.7441Y-8.8292
X4.7444Y-7.5123
X4.7709Y-6.4275
X4.7726Y-6.1824
X4.7782Y-4.5663
X4.7785Y-4.2871
X4.7787Y-5.2734
X4.7788Y-5.0014
X4.7996Y-6.2111
X4.8001Y-6.4582
X4.8229Y-6.6297
X4.8242Y-6.7908
X4.8244Y-7.2128
X4.8252Y-7.3472
X4.8286Y-6.2396
X4.8288Y-6.492
X4.838Y-5.3602
X4.839Y-6.0447
X4.8511Y-2.2466
X4.8687Y-4.6785
X4.8694Y-4.1289
X4.8694Y-4.8406
X4.8697Y-4.2922
X4.8858Y-5.2322
X4.9164Y-7.3484
X4.9447Y-7.2397
X4.947Y-6.8351
X4.9499Y-2.4463
X4.9632Y-6.4773
X4.9638Y-4.7706
X4.9642Y-4.8394
X4.9908Y-7.7138
X4.9909Y-4.3382
X5.003Y-2.6306
X5.0142Y-5.0283
X5.0142Y-5.1928
X5.0148Y-8.8614
X5.0211Y-6.5821
X5.1007Y-3.7138
X5.1062Y-5.1901
X5.1072Y-4.8765
X5.1116Y-6.4232
X5.1123Y-6.5871
X5.1129Y-7.4866
X5.1135Y-7.6389
X5.153Y-4.0894
X5.2152Y-2.4757
X5.2175Y-7.6402
X5.2503Y-4.0562
X5.3171Y-4.0223
X5.3948Y-3.1067
X5.4069Y-5.3313
X5.4071Y-6.1539
X5.4355Y-5.2742
X5.4355Y-5.8819
X5.4355Y-6.0447
X5.4355Y-6.6538
X5.4663Y-4.0906
X5.491Y-3.0344
X5.4931Y-4.0571
X5.5116Y-4.0224
X5.5309Y-3.0064
X5.5555Y-8.1963
X5.5575Y-7.9237
X5.5575Y-8.0254
X5.5575Y-8.1242
X5.5626Y-8.8937
X5.5668Y-2.9797
X5.6133Y-2.5893
X5.6477Y-2.691
X5.7032Y-5.9877
X5.7032Y-6.5188
X5.7032Y-6.6539
X5.7032Y-7.7134
X5.7288Y-5.7497
X5.729Y-5.9576
X5.7318Y-6.6824
X5.7318Y-7.0912
X5.7318Y-7.3837
X5.7603Y-7.1833
X5.7608Y-6.6254
X5.7619Y-5.8479
X5.7622Y-6.0162
X5.7799Y-7.7713
X5.7799Y-7.9228
X5.7889Y-6.522
X5.7899Y-8.6775
X5.8145Y-7.6714
X5.8148Y-8.0254
X5.8179Y-8.3975
X5.8495Y-7.5724
X5.8502Y-8.1257
X5.8956Y-3.9792
X5.9061Y-2.5608
X5.9065Y-2.7563
X5.9376Y-2.7315
X6.0101Y-8.1963
X6.0123Y-8.3507
X6.1025Y-2.7363
X6.1663Y-6.1537
X6.1669Y-5.9639
X6.4339Y-2.219
X6.4374Y-5.5389
X6.5988Y-2.2475
X6.663Y-5.8963
X6.8494Y-2.6391
X6.8814Y-3.979
X6.9488Y-4.3168
X7.0014Y-2.2038
X7.0074Y-8.3515
X7.0792Y-2.9407
X7.1076Y-2.7652
X7.2423Y-2.2036
X7.3062Y-7.5681
X7.3822Y-2.2385
X7.387Y-6.711
X7.3887Y-7.7168
X7.4002Y-8.9685
X7.4075Y-7.844
X7.433Y-3.5372
X7.4597Y-5.2874
X7.4617Y-7.3884
X7.4639Y-2.2056
X7.4722Y-2.2542
X7.5634Y-6.5506
X7.672Y-6.5535
X7.6722Y-4.411
X7.6766Y-2.3053
X7.6768Y-2.384
X7.6768Y-2.3447
X7.707Y-7.8441
X7.7355Y-7.6562
X7.7622Y-6.5953
X7.7765Y-4.1329
X7.7814Y-4.4097
X7.7928Y-6.711
X7.9715Y-4.9943
X7.9862Y-6.2109
X8.0127Y-6.1805
X8.0137Y-5.1464
X8.038Y-6.2107
X8.0532Y-5.1749
X8.0874Y-6.2225
X8.0886Y-6.5098
X8.1224Y-4.4181
X8.1377Y-6.5101
X8.1873Y-6.5053
X8.1876Y-6.6824
X8.2191Y-6.5468
X8.2229Y-4.9671
X8.2236Y-5.1749
X8.2344Y-2.4115
X8.235Y-3.6136
X8.2357Y-2.7132
X8.2666Y-7.8228
X8.2876Y-6.5115
X8.3375Y-6.5112
X8.3377Y-6.6255
X8.3753Y-3.0737
X8.3754Y-2.751
X8.3754Y-7.7452
X8.3766Y-7.9034
X8.4461Y-3.1033
X8.4475Y-3.4622
X8.4574Y-6.654
X8.4689Y-2.7114
X8.4853Y-6.2645
X8.5169Y-7.4428
X8.5299Y-2.3786
X8.5563Y-3.6347
X8.5675Y-2.7911
X8.5694Y-3.4373
X8.5822Y-2.7079
X8.5847Y-5.7246
X8.653Y-3.4373
X8.654Y-3.6347
X8.7144Y-5.0438
X8.7171Y-3.8212
X8.8152Y-5.1066
X8.8159Y-2.7092
X8.8169Y-2.3552
X8.8399Y-6.2647
X8.8645Y-4.3176
X8.8777Y-1.5796
X8.9158Y-5.6794
X8.9336Y-3.8192
T2
X11.2205Y-8.8386
X11.2205Y-8.937
T3
X10.9718Y-7.6672
X10.9718Y-8.1572
X11.5618Y-7.6672
X11.5618Y-8.1572
X8.7224Y-7.5258
X8.7224Y-7.825
X8.7224Y-8.1242
X10.62Y-7.1242
X10.62Y-8.1222
X10.62Y-8.5258
X10.421Y-3.0687
X11.421Y-2.8677
X11.421Y-3.2697
X12.421Y-3.0687
X10.421Y-2.3998
X11.421Y-2.1988
X11.421Y-2.6008
X12.421Y-2.3998
T4
X5.222Y-2.3929
X5.4411Y-2.3242
X5.5719Y-3.219
X5.6006Y-8.2506
X5.6008Y-5.8828
X5.6036Y-4.619
X5.6382Y-5.7084
X5.6517Y-3.0019
X5.7825Y-8.9246
X5.7911Y-4.5332
X5.7973Y-2.4294
X5.8501Y-4.4605
X5.8536Y-2.3648
X5.8592Y-2.2918
X5.994Y-2.3075
X7.131Y-3.6606
X7.2352Y-2.9488
X7.4155Y-2.3581
X7.4949Y-3.2221
X7.5191Y-4.6299
X7.5191Y-6.097
X7.5857Y-2.7485
X7.6067Y-7.189
X7.7221Y-4.3871
X8.3635Y-4.5305
X8.3653Y-5.9038
X8.452Y-5.8537
X8.4524Y-4.4614
X8.4994Y-3.4806
X8.5543Y-3.5605
X8.7115Y-3.5605
X9.7744Y-6.559
X9.7806Y-6.2908
X10.229Y-6.5817
X10.7784Y-6.91
X11.5707Y-7.0261
X13.6084Y-2.1167
T5
X6.96Y-2.39
X6.96Y-2.49
X6.96Y-2.59
X6.96Y-2.69
X6.96Y-2.79
X6.96Y-2.89
X6.96Y-2.99
X6.96Y-3.09
X11.6405Y-4.3705
X11.7405Y-4.3705
X12.2205Y-4.3695
X12.3205Y-4.3695
X3.5781Y-6.4826
X3.5781Y-6.5826
X3.6111Y-3.7886
X3.6111Y-3.8886
X3.6111Y-4.2386
X3.6111Y-4.3386
X3.6111Y-4.4386
X3.6111Y-4.5386
X3.6111Y-4.6386
X3.6111Y-4.7386
X3.6111Y-4.8386
X3.6111Y-4.9386
X3.6111Y-5.0386
X3.6111Y-5.1386
X3.6111Y-6.7376
X3.6111Y-6.8376
X3.6111Y-6.9376
X3.6111Y-7.0376
X3.6111Y-7.1376
X3.6111Y-7.2376
X3.6111Y-7.3376
X3.6111Y-7.4376
X3.6111Y-7.5376
X3.6111Y-7.6376
X3.6111Y-7.8376
X3.6111Y-7.9376
X3.6111Y-8.0376
X3.6201Y-5.2756
X3.6201Y-5.3756
X3.6201Y-5.4756
X3.6201Y-5.5756
X3.7101Y-4.2386
X3.7101Y-4.3386
X3.7101Y-4.4386
X3.7101Y-4.5386
X3.7101Y-4.6386
X3.7101Y-4.7386
X3.7101Y-4.8386
X3.7101Y-4.9386
X3.7101Y-5.0386
X3.7101Y-5.1386
X3.7101Y-6.7376
X3.7101Y-6.8376
X3.7101Y-6.9376
X3.7101Y-7.0376
X3.7101Y-7.1376
X3.7101Y-7.2376
X3.7101Y-7.3376
X3.7101Y-7.4376
X3.7101Y-7.5376
X3.7101Y-7.6376
X3.7151Y-6.4826
X3.7151Y-6.5826
X3.7191Y-5.2756
X3.7191Y-5.3756
X3.7191Y-5.4756
X3.7191Y-5.5756
X3.8111Y-8.0366
X3.9111Y-8.0366
X4.0111Y-8.0366
X4.0871Y-7.7856
X4.1871Y-7.7856
X4.2101Y-8.0376
X4.3101Y-8.0376
X4.4101Y-8.0376
X4.5101Y-8.0376
X4.6101Y-8.0376
X4.8101Y-8.0376
X4.9101Y-8.0376
X5.0101Y-8.0376
X5.1101Y-8.0376
X5.2101Y-8.0376
X5.3101Y-4.2386
X5.3101Y-4.3386
X5.3101Y-4.4386
X5.3101Y-4.5386
X5.3101Y-4.6386
X5.3101Y-4.7386
X5.3101Y-4.8386
X5.3101Y-4.9386
X5.3101Y-5.0386
X5.3101Y-5.1386
X5.3101Y-6.7376
X5.3101Y-6.8376
X5.3101Y-6.9376
X5.3101Y-7.0376
X5.3101Y-7.1376
X5.3101Y-7.2376
X5.3101Y-7.3376
X5.3101Y-7.4376
X5.3101Y-7.5376
X5.3101Y-7.6376
X5.4031Y-3.7926
X5.4031Y-3.8926
X5.4091Y-4.2386
X5.4091Y-4.3386
X5.4091Y-4.4386
X5.4091Y-4.5386
X5.4091Y-4.6386
X5.4091Y-4.7386
X5.4091Y-4.8386
X5.4091Y-4.9386
X5.4091Y-5.0386
X5.4091Y-5.1386
X5.4091Y-6.7376
X5.4091Y-6.8376
X5.4091Y-6.9376
X5.4091Y-7.0376
X5.4091Y-7.1376
X5.4091Y-7.2376
X5.4091Y-7.3376
X5.4091Y-7.4376
X5.4091Y-7.5376
X5.4091Y-7.6376
X5.4101Y-7.8376
X5.4101Y-7.9376
X5.4101Y-8.0376
X5.5621Y-3.7906
X5.5621Y-3.8906
X4.6172Y-2.7772
X4.6172Y-2.8772
X5.9448Y-5.6965
X5.9448Y-5.7965
X5.9448Y-5.8965
X5.9448Y-5.9965
X5.9448Y-6.0965
X5.9448Y-7.3715
X5.9448Y-7.4715
X5.9448Y-7.5715
X5.9448Y-7.6715
X5.9448Y-7.7715
X7.8948Y-5.6965
X7.8948Y-5.7965
X7.8948Y-5.8965
X7.8948Y-5.9965
X7.8948Y-6.0965
X7.8948Y-7.3715
X7.8948Y-7.4715
X7.8948Y-7.5715
X7.8948Y-7.6715
X7.8948Y-7.7715
X8.62Y-5.95
X8.72Y-5.95
X8.82Y-5.95
X8.92Y-5.95
X12.575Y-4.965
X12.575Y-5.925
X8.515Y-4.74
X8.615Y-4.74
X8.715Y-4.74
X8.815Y-4.74
X8.915Y-4.74
X10.57Y-4.06
X10.57Y-4.74
X8.1234Y-4.8072
X8.2234Y-4.8072
X7.135Y-4.045
X7.135Y-4.645
X7.235Y-4.045
X7.235Y-4.645
X7.335Y-4.045
X7.335Y-4.645
X7.435Y-4.045
X7.435Y-4.645
X7.935Y-4.045
X7.935Y-4.645
X8.235Y-4.045
X8.235Y-4.645
X8.715Y-6.385
X8.815Y-6.385
X8.9166Y-6.385
X9.215Y-6.385
X9.315Y-6.385
X3.4318Y-8.2668
X3.4318Y-8.3668
X4.7685Y-2.7768
X4.7685Y-2.8768
X8.1236Y-5.0775
X8.2236Y-5.0775
T6
X6.2912Y-4.6936
X6.4093Y-4.6936
X6.5274Y-4.6936
X6.6455Y-4.6936
X6.2907Y-5.0247
X6.4088Y-5.0247
X6.5269Y-5.0247
X6.645Y-5.0247
X7.7078Y-8.5056
X7.8259Y-8.5056
X5.1572Y-2.8448
X5.2753Y-2.8448
X5.3934Y-2.8448
X5.5115Y-2.8448
T7
X12.8542Y-5.6412
X12.8571Y-9.0644
X4.3581Y-2.7798
X4.3581Y-3.5798
X8.7224Y-7.1242
X8.7224Y-8.5258
T8
X7.8017Y-2.2424
X7.8017Y-2.5377
X8.4513Y-2.5377
X8.5891Y-2.2424
X8.7269Y-2.5377
X12.7742Y-4.17
X13.66Y-4.17
X12.775Y-5.0
X13.6608Y-5.0
X12.775Y-4.585
X13.6608Y-4.585
X11.64Y-8.945
X12.5258Y-8.945
T9
X4.3546Y-1.8541
X4.3546Y-2.0706
X4.52Y-1.8541
X4.52Y-2.0706
X4.6853Y-1.8541
X4.6853Y-2.0706
X4.8507Y-1.8541
X4.8507Y-2.0706
X5.016Y-1.8541
X5.016Y-2.0706
X5.1814Y-1.8541
X5.1814Y-2.0706
X5.4413Y-1.8541
X5.4413Y-2.0706
X5.6067Y-1.8541
X5.6067Y-2.0706
X5.772Y-1.8541
X5.772Y-2.0706
X5.9374Y-1.8541
X5.9374Y-2.0706
X6.1027Y-1.8541
X6.1027Y-2.0706
X6.2681Y-1.8541
X6.2681Y-2.0706
X6.4334Y-1.8541
X6.4334Y-2.0706
X6.5988Y-1.8541
X6.5988Y-2.0706
X6.7641Y-1.8541
X6.7641Y-2.0706
X3.4357Y-1.8539
X3.4357Y-2.0704
X3.601Y-1.8539
X3.601Y-2.0704
X3.7664Y-1.8539
X3.7664Y-2.0704
X3.9318Y-1.8539
X3.9318Y-2.0704
X4.0971Y-1.8539
X4.0971Y-2.0704
X7.0857Y-8.504
X7.0857Y-8.7205
X7.2511Y-8.504
X7.2511Y-8.7205
X13.3519Y-3.6824
X13.5684Y-3.6824
X8.112Y-6.7806
X8.112Y-6.946
X8.112Y-7.1113
X8.112Y-7.2767
X8.3285Y-6.7806
X8.3285Y-6.946
X8.3285Y-7.1113
X8.3285Y-7.2767
X13.352Y-2.9753
X13.352Y-3.1407
X13.5685Y-2.9753
X13.5685Y-3.1407
X5.1418Y-8.5036
X5.1418Y-8.7201
X5.3071Y-8.5036
X5.3071Y-8.7201
X5.4725Y-8.5036
X5.4725Y-8.7201
X3.9173Y-8.5034
X3.9173Y-8.7199
X4.0826Y-8.5034
X4.0826Y-8.7199
X4.248Y-8.5034
X4.248Y-8.7199
X4.4133Y-8.5034
X4.4133Y-8.7199
X4.5787Y-8.5034
X4.5787Y-8.7199
X7.7272Y-2.9307
X7.7272Y-3.2259
X8.3177Y-2.9307
X8.3177Y-3.2259
X8.5146Y-2.9307
X8.5146Y-3.2259
X8.7114Y-2.9307
X8.7114Y-3.2259
X6.0274Y-8.504
X6.0274Y-8.7205
X6.1928Y-8.504
X6.1928Y-8.7205
X6.3581Y-8.504
X6.3581Y-8.7205
X6.5235Y-8.504
X6.5235Y-8.7205
X13.234Y-2.113
X13.234Y-2.276
X13.234Y-2.439
T10
X8.2307Y-8.1889
X8.2307Y-8.5795
X8.3646Y-8.1889
X8.3646Y-8.5795
X6.9944Y-4.8919
X6.9944Y-5.0258
X7.385Y-4.8919
X7.385Y-5.0258
T0
M30
