M48
; DRILL file {KiCad (5.1.5)-3} date 07/09/2020 21:16:08
; FORMAT={-:-/ absolute / inch / decimal}
; #@! TF.CreationDate,2020-09-07T21:16:08-04:00
; #@! TF.GenerationSoftware,Kicad,Pcbnew,(5.1.5)-3
; #@! TF.FileFunction,NonPlated,1,2,NPTH
FMAT,2
INCH
T1C0.0400
T2C0.1181
T3C0.1220
T4C0.1520
%
G90
G05
T1
X10.4089Y-8.1193
X10.4089Y-8.7193
X12.2128Y-8.1193
X12.2128Y-8.7193
T2
X4.0754Y-8.1538
X4.2605Y-8.1538
T3
X8.79Y-8.0134
X8.79Y-8.9265
T4
X13.7515Y-7.284
X19.2335Y-7.284
X18.25Y-7.284
X6.352Y-9.5856
X11.666Y-7.3535
X15.51Y-7.284
X6.3505Y-7.284
X10.03Y-7.284
X12.77Y-7.284
X8.2735Y-7.284
X5.9043Y-9.5857
X15.51Y-9.586
X18.25Y-9.586
X7.29Y-7.284
X13.7515Y-9.586
X8.2715Y-9.586
X19.701Y-8.415
X16.4935Y-9.586
X5.6721Y-7.2839
X7.29Y-9.586
X11.666Y-9.5165
X16.4915Y-7.284
X19.2335Y-9.586
X12.77Y-9.586
X10.03Y-9.586
T0
M30
