M48
; DRILL file {KiCad (5.1.5)-3} date 07/09/2020 21:16:08
; FORMAT={-:-/ absolute / inch / decimal}
; #@! TF.CreationDate,2020-09-07T21:16:08-04:00
; #@! TF.GenerationSoftware,Kicad,Pcbnew,(5.1.5)-3
; #@! TF.FileFunction,Plated,1,2,PTH
FMAT,2
INCH
T1C0.0157
T2C0.0300
T3C0.0315
T4C0.0358
T5C0.0400
T6C0.0402
T7C0.0472
T8C0.0551
%
G90
G05
T1
X4.4682Y-7.8973
X4.4684Y-7.7067
X4.5036Y-7.7353
X4.5042Y-7.9427
X4.623Y-7.8957
X4.698Y-7.8507
X4.698Y-7.9357
X4.748Y-7.9307
X4.9042Y-7.9806
X4.9047Y-7.6909
X4.9471Y-7.7907
X4.9473Y-7.8505
X5.4445Y-7.8908
X5.5045Y-7.5058
X5.7771Y-7.7914
X5.7798Y-8.3919
X5.7801Y-7.4313
X5.8138Y-8.4933
X5.814Y-7.6961
X5.8598Y-7.0446
X5.8599Y-7.3623
X5.9415Y-7.6409
X5.9418Y-7.1852
X6.0143Y-7.2159
X6.0144Y-7.6783
X6.0866Y-8.999
X6.0881Y-9.7033
X6.0938Y-7.7669
X6.0943Y-7.1188
X6.1697Y-7.0046
X6.1703Y-7.149
X6.2694Y-7.18
X6.5041Y-7.183
X6.5048Y-7.534
X6.5335Y-9.3305
X6.539Y-7.1483
X6.5393Y-7.8906
X6.7067Y-8.9667
X6.7073Y-9.2699
X6.7086Y-7.7115
X6.7098Y-7.5608
X7.405Y-7.425
X7.405Y-9.445
X7.575Y-9.3
X7.5751Y-9.094
X7.718Y-7.7651
X7.7185Y-7.4536
X7.7621Y-9.2379
X7.7624Y-9.0003
X7.775Y-7.62
X7.775Y-7.745
X7.8549Y-7.6791
X7.8771Y-7.8621
X7.8835Y-9.2365
X7.8837Y-9.0317
X7.895Y-7.625
X7.895Y-7.815
X7.9699Y-9.0607
X7.97Y-9.33
X8.015Y-9.45
X8.0157Y-9.1238
X8.07Y-7.49
X8.07Y-7.785
X8.115Y-7.42
X8.115Y-7.8335
X8.385Y-7.115
X8.385Y-7.29
X8.57Y-7.34
X8.57Y-7.695
X8.6Y-9.735
X8.6Y-9.88
X8.6796Y-8.8844
X8.684Y-9.6929
X8.9353Y-8.3626
X8.9353Y-8.49
X8.9753Y-8.4026
X8.9753Y-8.6576
X9.0053Y-8.3676
X9.0053Y-8.4626
X9.0453Y-8.4376
X9.0453Y-8.5576
X10.14Y-9.445
X10.145Y-7.425
X10.315Y-7.56
X10.315Y-7.745
X10.315Y-9.155
X10.315Y-9.31
X10.495Y-9.094
X10.495Y-9.24
X10.52Y-8.4
X10.5452Y-8.4302
X10.6162Y-8.9988
X10.6162Y-9.2388
X10.62Y-8.365
X10.62Y-8.46
X10.635Y-7.62
X10.635Y-7.755
X10.71Y-9.125
X10.71Y-9.34
X10.715Y-7.535
X10.715Y-7.725
X10.715Y-8.625
X10.8Y-9.105
X10.8Y-9.45
X10.81Y-7.415
X10.81Y-7.8335
X11.32Y-7.9121
X11.42Y-7.9406
X11.52Y-7.9692
X11.52Y-8.7987
X11.62Y-7.6065
X11.7199Y-7.6965
X11.72Y-8.8558
X11.77Y-9.435
X11.77Y-9.85
X11.785Y-7.28
X11.785Y-7.605
X11.82Y-7.665
X11.8207Y-9.1835
X11.92Y-8.8844
X11.955Y-7.075
X11.9585Y-9.1835
X12.02Y-8.7987
X12.02Y-8.8844
X12.12Y-8.8273
X12.31Y-8.66
X12.31Y-8.8273
X12.885Y-7.425
X12.885Y-9.445
X13.055Y-7.555
X13.055Y-7.635
X13.055Y-9.305
X13.0565Y-9.2115
X13.24Y-9.155
X13.24Y-9.245
X13.355Y-9.24
X13.3565Y-9.0635
X13.385Y-7.62
X13.385Y-7.695
X13.44Y-9.105
X13.44Y-9.34
X13.46Y-7.52
X13.46Y-7.595
X13.51Y-9.14
X13.51Y-9.45
X13.565Y-7.42
X13.565Y-7.725
X13.67Y-7.18
X13.865Y-8.46
X13.9Y-8.4285
X13.935Y-8.4
X13.97Y-8.37
X13.975Y-7.18
X13.975Y-7.29
X14.085Y-7.345
X14.085Y-7.9692
X14.1892Y-8.8558
X14.1892Y-9.6942
X14.19Y-7.565
X14.19Y-7.9406
X14.4Y-8.315
X14.4406Y-8.4285
X14.48Y-8.3715
X14.525Y-8.36
X14.525Y-8.4
X14.545Y-8.525
X14.555Y-8.085
X14.565Y-8.22
X14.605Y-8.24
X14.67Y-8.155
X14.67Y-8.305
X14.6952Y-8.1852
X14.81Y-8.185
X14.81Y-8.42
X14.88Y-8.155
X14.88Y-8.31
X15.42Y-8.37
X15.4528Y-8.3985
X15.555Y-8.665
X15.555Y-8.9129
X15.565Y-7.8835
X15.565Y-8.06
X15.565Y-8.295
X15.6Y-8.34
X15.6015Y-8.9415
X15.605Y-7.5665
X15.625Y-7.415
X15.625Y-9.445
X15.63Y-8.66
X15.63Y-8.97
X15.6644Y-8.6992
X15.6644Y-8.9988
X15.67Y-8.425
X15.68Y-9.035
X15.695Y-7.595
X15.7068Y-8.2988
X15.71Y-8.46
X15.7215Y-8.685
X15.7215Y-9.0635
X15.7306Y-9.2806
X15.735Y-9.105
X15.75Y-8.46
X15.77Y-8.3274
X15.77Y-9.14
X15.79Y-8.46
X15.795Y-7.55
X15.795Y-7.63
X15.8Y-8.385
X15.81Y-8.6
X15.81Y-9.185
X15.85Y-8.46
X15.855Y-8.975
X15.89Y-8.46
X15.905Y-8.94
X15.9101Y-8.0651
X15.9101Y-8.1545
X15.9456Y-9.2806
X15.9858Y-8.3064
X15.995Y-7.43
X16.025Y-7.835
X16.03Y-7.585
X16.03Y-7.6665
X16.06Y-7.8121
X16.08Y-8.625
X16.0835Y-7.6665
X16.0892Y-8.3064
X16.09Y-8.375
X16.095Y-9.185
X16.095Y-9.245
X16.0993Y-7.8243
X16.1Y-8.59
X16.13Y-7.7835
X16.13Y-8.53
X16.135Y-9.08
X16.135Y-9.17
X16.165Y-7.755
X16.165Y-8.655
X16.175Y-9.14
X16.175Y-9.335
X16.195Y-7.725
X16.195Y-8.6942
X16.23Y-7.695
X16.23Y-8.73
X16.25Y-7.58
X16.25Y-9.45
X16.265Y-7.665
X16.265Y-8.765
X16.29Y-9.03
X16.3Y-8.8002
X16.335Y-7.49
X16.335Y-8.835
X16.37Y-7.42
X16.37Y-7.665
X16.37Y-7.86
X16.37Y-8.25
X16.41Y-7.175
X16.585Y-8.375
X16.585Y-8.575
X16.74Y-7.175
X16.74Y-7.29
X16.78Y-7.63
X16.78Y-8.22
X16.79Y-8.38
X16.79Y-8.575
X16.82Y-7.36
X16.92Y-9.17
X16.92Y-9.695
X18.365Y-7.425
X18.365Y-9.445
X18.4135Y-9.2165
X18.4293Y-9.3243
X18.485Y-8.8761
X18.485Y-9.365
X18.5343Y-7.5607
X18.5343Y-7.8243
X18.56Y-7.89
X18.57Y-7.665
X18.725Y-7.62
X18.725Y-7.925
X18.83Y-9.01
X18.835Y-7.615
X18.835Y-8.84
X18.84Y-9.25
X18.92Y-7.535
X18.92Y-7.96
X18.92Y-9.055
X18.92Y-9.33
X18.965Y-8.9685
X18.98Y-7.415
X18.995Y-9.44
X19.01Y-8.805
X19.1Y-7.43
X19.1Y-7.87
X19.375Y-7.295
X19.375Y-7.665
X19.405Y-9.14
X19.43Y-7.96
X19.465Y-7.925
X19.4785Y-8.9685
X19.535Y-8.71
X19.55Y-8.94
X19.5846Y-8.9046
X19.595Y-9.085
X19.62Y-8.855
X19.65Y-9.01
X19.695Y-9.115
X19.795Y-8.89
T2
X7.6361Y-7.9978
X7.7093Y-8.3923
X7.7093Y-8.493
X7.7353Y-7.9978
X8.8345Y-8.1627
X8.8345Y-8.2631
X8.8345Y-8.3623
X8.8345Y-8.4615
X8.8345Y-8.5608
X8.8345Y-8.66
X8.8345Y-8.7592
T3
X4.8363Y-8.2488
X4.8861Y-8.1539
X4.902Y-8.5177
X4.927Y-8.0308
X5.0245Y-7.9258
X5.0995Y-7.4508
X5.1045Y-7.5908
X5.1046Y-8.0264
X5.4986Y-8.5085
X5.5072Y-8.2838
X8.4774Y-7.9278
X8.4775Y-8.2846
X8.625Y-7.18
X8.625Y-7.9869
X10.72Y-7.9278
X11.18Y-7.015
X11.18Y-7.9278
X14.08Y-8.783
X14.08Y-9.52
X14.235Y-7.1798
X14.235Y-7.975
T4
X4.8025Y-8.7606
X4.8025Y-9.3606
X5.4025Y-8.7606
X5.4025Y-9.3606
X5.5025Y-8.7606
X5.5025Y-9.3606
T5
X10.5207Y-8.1193
X10.5207Y-8.7193
X10.6207Y-8.1193
X10.6207Y-8.7193
X10.7207Y-8.1193
X10.7207Y-8.7193
X10.8207Y-8.1193
X10.8207Y-8.7193
X10.9207Y-8.1193
X10.9207Y-8.7193
X11.0207Y-8.1193
X11.0207Y-8.7193
X11.1207Y-8.1193
X11.1207Y-8.7193
X11.2207Y-8.1193
X11.2207Y-8.7193
X11.3207Y-8.1193
X11.3207Y-8.7193
X11.4207Y-8.1193
X11.4207Y-8.7193
X11.5207Y-8.1193
X11.5207Y-8.7193
X11.6207Y-8.1193
X11.6207Y-8.7193
X11.7207Y-8.1193
X11.7207Y-8.7193
X11.8207Y-8.1193
X11.8207Y-8.7193
X11.9207Y-8.1193
X11.9207Y-8.7193
X12.0207Y-8.1193
X12.0207Y-8.7193
X12.1207Y-8.1193
X12.1207Y-8.7193
T6
X3.9912Y-7.8656
X3.9912Y-7.9837
X4.1093Y-7.8656
X4.1093Y-7.9837
X4.2274Y-7.8656
X4.2274Y-7.9837
X4.3455Y-7.8656
X4.3455Y-7.9837
T7
X4.0209Y-7.6289
X4.1209Y-7.6289
X4.2209Y-7.6289
X4.3209Y-7.6289
T8
X6.269Y-6.995
X6.432Y-6.995
X10.03Y-6.995
X12.77Y-6.995
X8.192Y-6.995
X8.355Y-6.995
X5.9043Y-9.8747
X15.51Y-9.875
X18.25Y-9.875
X7.29Y-6.995
X13.67Y-9.875
X13.833Y-9.875
X8.19Y-9.875
X8.353Y-9.875
X19.99Y-8.415
X16.412Y-9.875
X16.575Y-9.875
X5.6721Y-6.9949
X7.29Y-9.875
X11.955Y-9.435
X11.955Y-9.598
X16.41Y-6.995
X16.573Y-6.995
X19.152Y-9.875
X19.315Y-9.875
X12.77Y-9.875
X10.03Y-9.875
X13.67Y-6.995
X13.833Y-6.995
X19.152Y-6.995
X19.315Y-6.995
X18.25Y-6.995
X6.2705Y-9.8746
X6.4335Y-9.8746
X11.955Y-7.272
X11.955Y-7.435
X15.51Y-6.995
T0
M30
