M48
; DRILL file {KiCad (5.1.5)-3} date 17/07/2020 00:05:16
; FORMAT={-:-/ absolute / inch / decimal}
; #@! TF.CreationDate,2020-07-17T00:05:16-04:00
; #@! TF.GenerationSoftware,Kicad,Pcbnew,(5.1.5)-3
; #@! TF.FileFunction,Plated,1,2,PTH
FMAT,2
INCH
T1C0.0157
T2C0.0287
T3C0.0335
T4C0.0394
T5C0.0402
T6C0.0512
%
G90
G05
T1
X3.935Y-3.315
X4.005Y-3.4
X4.22Y-3.375
X4.74Y-3.375
X4.74Y-3.425
X4.855Y-3.035
X5.055Y-3.425
X5.085Y-3.175
X5.185Y-3.175
X5.365Y-2.95
X5.48Y-2.95
T2
X4.9987Y-3.175
X4.9987Y-3.275
X4.9987Y-3.375
X4.9987Y-3.475
X5.3113Y-3.175
X5.3113Y-3.275
X5.3113Y-3.375
X5.3113Y-3.475
T3
X4.045Y-3.005
X4.145Y-3.005
X4.245Y-3.005
X4.645Y-3.005
X4.745Y-3.005
T4
X5.38Y-2.815
X5.48Y-2.815
X5.58Y-2.815
X5.68Y-2.815
X5.78Y-2.815
X3.725Y-2.815
X3.725Y-3.495
T5
X5.48Y-3.05
X5.48Y-3.1681
X5.48Y-3.2862
X5.48Y-3.4043
T6
X4.9881Y-2.8
X5.0866Y-2.8984
X5.185Y-2.8
T0
M30
