M48
; DRILL file {KiCad (5.1.5)-3} date 16/07/2020 16:27:52
; FORMAT={-:-/ absolute / inch / decimal}
; #@! TF.CreationDate,2020-07-16T16:27:52-04:00
; #@! TF.GenerationSoftware,Kicad,Pcbnew,(5.1.5)-3
; #@! TF.FileFunction,Plated,1,2,PTH
FMAT,2
INCH
T1C0.0157
T2C0.0276
T3C0.0315
T4C0.0394
T5C0.0402
T6C0.0433
T7C0.0551
%
G90
G05
T1
X6.2Y-4.195
X6.275Y-3.85
X6.275Y-3.955
X6.275Y-4.04
X6.275Y-4.145
X6.385Y-3.815
X6.385Y-3.95
X6.46Y-4.1
X6.56Y-4.025
X6.565Y-4.22
X6.565Y-4.395
X6.615Y-4.095
X6.635Y-4.135
X6.69Y-4.095
X6.76Y-4.36
X6.855Y-4.325
X6.95Y-4.02
X6.95Y-4.135
X6.96Y-4.435
X6.96Y-4.57
X7.055Y-3.695
X7.12Y-3.695
X7.12Y-4.045
X7.155Y-4.245
X7.265Y-4.44
X7.265Y-4.57
T2
X5.85Y-3.533
X5.85Y-3.833
X6.15Y-3.633
X6.15Y-3.733
X6.15Y-3.833
T3
X4.025Y-4.12
T4
X6.855Y-3.515
X6.955Y-3.515
X7.055Y-3.515
X7.155Y-3.515
X3.2Y-4.5
X5.85Y-4.12
X5.85Y-4.4153
X3.2Y-3.54
T5
X6.455Y-3.815
X6.5731Y-3.815
T6
X5.11Y-3.55
X5.11Y-4.4161
X4.025Y-3.55
X4.025Y-4.4161
T7
X4.315Y-3.915
X4.315Y-4.415
X5.415Y-3.55
X5.415Y-3.95
X3.345Y-3.72
X3.345Y-4.12
X3.345Y-3.55
X3.745Y-3.55
X4.795Y-3.565
X4.795Y-4.065
T0
M30
